<svg xmlns="http://www.w3.org/2000/svg" width="1272" height="1272" viewBox="0 0 1272 1272">
  <defs>
    <style>
      .cls-1 {
        fill: #fcfcfc;
      }

      .cls-2 {
        fill: #1a1b2f;
        fill-rule: evenodd;
      }
    </style>
  </defs>
  <circle class="cls-1" cx="637.999" cy="635.999" r="618.061"/>
  <path id="Shape_318_1" data-name="Shape 318 1" class="cls-2" d="M503.741,377.836c28.305,1.131,55.333,5.06,64.35,25.777,6.929,15.92,1.983,75.593,1.98,103.1V752.581c0,28.688,6.549,95.889-1.98,115-8.724,19.551-32.3,23.507-55.44,26.767-24.142,3.4-55.461-6.682-65.339-22.8-12.72-20.755-5.944-79.908-5.94-114.009V508.7c0-31.64-6.183-84.738,3.96-106.079C457.5,377.009,478.761,388.527,503.741,377.836Z"/>
  <path id="Shape_318_1_copy" data-name="Shape 318 1 copy" class="cls-2" d="M763.741,377.836c28.305,1.131,55.333,5.06,64.35,25.777,6.929,15.92,1.983,75.593,1.98,103.1V752.581c0,28.688,6.549,95.889-1.98,115-8.724,19.551-32.3,23.507-55.44,26.767-24.142,3.4-55.461-6.682-65.339-22.8-12.72-20.755-5.944-79.908-5.94-114.009V508.7c0-31.64-6.183-84.738,3.96-106.079C717.5,377.009,738.761,388.527,763.741,377.836Z"/>
</svg>
