<svg xmlns="http://www.w3.org/2000/svg" width="1272" height="1272" viewBox="0 0 1272 1272">
  <defs>
    <style>
      .cls-1 {
        fill: #fcfcfc;
      }

      .cls-2 {
        fill: #1a1b2f;
        fill-rule: evenodd;
      }
    </style>
  </defs>
  <circle class="cls-1" cx="635.999" cy="635.999" r="618.061"/>
  <path id="Shape_317_1" data-name="Shape 317 1" class="cls-2" d="M509.916,379.443c31.587-.97,70.852,34.405,95.869,49.836l229.89,142.669c16.331,10.32,96.536,46.626,81.2,74.267-8.648,15.582-72.17,48.179-90.978,59.608L607.742,842.629l-57.717,36.156c-3.853,2.326-21.162,11.81-21.522,9.772,0,0-16.923,4.809-17.609,3.909C481.047,882.9,492.3,814,492.308,772.272V496.705c0-28.608-5.892-90.253,3.913-107.49C499.177,384.016,507.2,382.177,509.916,379.443Z"/>
</svg>
