<svg xmlns="http://www.w3.org/2000/svg" width="1500" height="1500" viewBox="0 0 1500 1500">
  <defs>
    <style>
      .cls-1 {
        fill: #fcfcfc;
        fill-rule: evenodd;
      }
    </style>
  </defs>
  <path id="Shape_318_1" data-name="Shape 318 1" class="cls-1" d="M260.765,135.366c67.529,2.692,132.015,12.046,153.528,61.368,16.531,37.9,4.729,179.972,4.723,245.47V1027.56c0.007,68.3,15.625,228.29-4.723,273.79-20.815,46.54-77.062,55.96-132.27,63.73-57.6,8.1-132.321-15.91-155.89-54.29-30.346-49.42-14.18-190.25-14.171-271.43V446.924c-0.006-75.326-14.751-201.742,9.448-252.551C150.451,133.4,201.166,160.817,260.765,135.366Z"/>
  <path id="Shape_317_1" data-name="Shape 317 1" class="cls-1" d="M1346.16,145.717c-74.31-2.283-166.68,81.031-225.54,117.376Q850.245,431.084,579.808,599.11c-38.419,24.3-227.1,109.813-191.012,174.913,20.346,36.7,169.781,113.472,214.025,140.39q256.575,161.1,513.2,322.207,67.89,42.57,135.78,85.16c9.06,5.47,49.78,27.81,50.63,23.01,0,0,39.81,11.33,41.42,9.21,70.22-22.54,43.74-184.8,43.73-283.09V421.9c0-67.379,13.86-212.565-9.21-253.163C1371.42,156.489,1352.54,152.157,1346.16,145.717Z"/>
</svg>
