<svg xmlns="http://www.w3.org/2000/svg" width="1500" height="1500" viewBox="0 0 1500 1500">
  <defs>
    <style>
      .cls-1 {
        fill: #fcfcfc;
        fill-rule: evenodd;
      }
    </style>
  </defs>
  <path id="Shape_319_1" data-name="Shape 319 1" class="cls-1" d="M1134.65,210Q1264.805,321.08,1395,432.18l-2.94,1.471c-8.81,17.135-33.69,30.866-48.54,42.671q-72.075,61.791-144.15,123.6c-19.35,15.385-39.69,46.988-66.19,52.97,0.5-34.668,7.8-95.232-5.89-119.182C965.97,505.483,865.361,635.04,787.509,727.929,688.683,845.843,574.1,1026.57,427.132,1089.89c-34.77,14.98-60.321,18.34-94.139,27.96-41.085,11.68-103.931,11.77-172.1,11.77l-55.9-1.47q0.735-86.805,1.471-173.627c70.5,0.895,165.158,6.948,202.987-8.828,166.99-69.644,240.636-218.189,351.551-342.834,34.822-39.132,61.284-85.581,102.965-117.711,66.592-51.335,156.849-109.7,233.877-120.654,10.869-11.968,104.609,4.355,132.379-10.3C1144.09,315.293,1127.12,252.485,1134.65,210ZM105,370.381c205.1-2.688,290.543,10.824,400.091,91.227,19.689,14.45,42.775,27.668,57.366,47.084h-2.942c-3.115,11.63-95.842,128.072-107.377,136.839l-51.482-45.613C319.342,545.074,251.1,543.191,105,544.005V370.381ZM1134.65,845.64Q1264.805,956.719,1395,1067.82,1265.565,1178.9,1136.12,1290l-5.89-1.47c0.33-21.41,3.11-138.84-4.41-144.2-14.1-5.58-119.14-5.88-119.14-5.88-79.212-21.75-200.048-65.92-258.886-142.728,22.253-52.794,81.489-85.967,104.435-139.782h5.884c21.968,29.474,106.3,94.625,138.267,95.64,16.31,0.519,43.51,24.123,60.31,13.243,14.02,2.141,68.04,10.883,73.54-4.414C1139.58,949.761,1131.21,866.009,1134.65,845.64Z"/>
</svg>
