<svg xmlns="http://www.w3.org/2000/svg" xmlns:xlink="http://www.w3.org/1999/xlink" viewBox="0 0 274.22 263.93"><defs><style>.cls-1{fill:none;}.cls-2{isolation:isolate;}.cls-3{opacity:0.2;}.cls-4{clip-path:url(#clip-path);}.cls-5{fill:#b3b4b4;}.cls-6{fill:#b6b7b7;}.cls-7{fill:#b9b9b9;}.cls-8{fill:#b0b1b1;}.cls-9{fill:#aeaeae;}.cls-10{fill:#ababab;}.cls-11{fill:#a8a9a9;}.cls-12{fill:#a5a6a6;}.cls-13{clip-path:url(#clip-path-2);}.cls-14{clip-path:url(#clip-path-3);}.cls-15{fill:#d6d7d7;}.cls-16{mix-blend-mode:hard-light;}.cls-17{clip-path:url(#clip-path-4);}.cls-18{fill:#292c7b;}.cls-19{fill:#2a2c7c;}.cls-20{fill:#2a2d7d;}.cls-21{fill:#292c7a;}.cls-22{fill:#292b79;}.cls-23{fill:#282b79;}.cls-24{fill:#282b78;}.cls-25{clip-path:url(#clip-path-5);}.cls-26{clip-path:url(#clip-path-6);}.cls-27,.cls-49{mix-blend-mode:overlay;}.cls-28{clip-path:url(#clip-path-7);}.cls-29{fill:#c5c5c5;}.cls-30{fill:#c8c8c8;}.cls-31{fill:#cbcbcb;}.cls-32{fill:#c2c2c2;}.cls-33{fill:#bfbfbf;}.cls-34{fill:#bcbcbc;}.cls-35{fill:#b6b6b6;}.cls-36{clip-path:url(#clip-path-8);}.cls-37{clip-path:url(#clip-path-9);}.cls-38{fill:#ececec;}.cls-39{mix-blend-mode:darken;}.cls-40{fill:#279c68;}.cls-41{fill:#279d68;}.cls-42{fill:#279e69;}.cls-43{fill:#279b67;}.cls-44{fill:#269a66;}.cls-45{fill:#269966;}.cls-46{fill:#269865;}.cls-47{fill:#269765;}.cls-48{fill:#2aa76f;}.cls-49{opacity:0.7;}</style><clipPath id="clip-path" transform="translate(-7.89 -9.97)"><path class="cls-1" d="M91.73,220.24,72.84,210a65.58,65.58,0,0,0,12,5.09,72,72,0,0,0,31.85,2.3A85.31,85.31,0,0,0,148.6,206a103.54,103.54,0,0,0,27.3-23.77,108.12,108.12,0,0,0,18.32-31.89l18.9,10.28a108.65,108.65,0,0,1-18.32,31.9,103.86,103.86,0,0,1-27.3,23.76,85.42,85.42,0,0,1-31.88,11.32,72,72,0,0,1-31.84-2.29A67.08,67.08,0,0,1,91.73,220.24Z"/></clipPath><clipPath id="clip-path-2" transform="translate(-7.89 -9.97)"><path class="cls-1" d="M161.5,42.87l18.89,10.28A70.59,70.59,0,0,1,195,63.81a74.2,74.2,0,0,1,18.13,26.92A91,91,0,0,1,219.45,125a103.61,103.61,0,0,1-6.33,35.62l-18.9-10.28a103.85,103.85,0,0,0,6.34-35.61,91.17,91.17,0,0,0-6.28-34.3,74.14,74.14,0,0,0-18.14-26.92A70.53,70.53,0,0,0,161.5,42.87Z"/></clipPath><clipPath id="clip-path-3" transform="translate(-7.89 -9.97)"><path class="cls-1" d="M76.44,242.06,57.55,231.77A90.87,90.87,0,0,1,39.65,219,93.08,93.08,0,0,1,16,185.05a111.88,111.88,0,0,1-8.07-43.22A131.16,131.16,0,0,1,16.13,96.1,136.38,136.38,0,0,1,40,55.38,132.46,132.46,0,0,1,75.41,25.6,115.2,115.2,0,0,1,117.11,11,98.36,98.36,0,0,1,159,13.85a91,91,0,0,1,18,7.39l9.44,5.14,9.46,5.14a91.2,91.2,0,0,0-18-7.39A98.37,98.37,0,0,0,136,21.3a115.14,115.14,0,0,0-41.7,14.58A132.3,132.3,0,0,0,58.86,65.66,136.42,136.42,0,0,0,35,106.38a131.16,131.16,0,0,0-8.24,45.73,111.88,111.88,0,0,0,8.08,43.22,93,93,0,0,0,23.69,33.94A91.57,91.57,0,0,0,76.44,242.06Z"/></clipPath><clipPath id="clip-path-4" transform="translate(-7.89 -9.97)"><path class="cls-1" d="M110.39,230.38,91.49,220.1a65.38,65.38,0,0,0,12.05,5.09,72,72,0,0,0,31.84,2.3,85.48,85.48,0,0,0,31.87-11.32,103.72,103.72,0,0,0,27.3-23.77,108.5,108.5,0,0,0,18.33-31.89l18.9,10.28a108.63,108.63,0,0,1-18.33,31.89,103.9,103.9,0,0,1-27.3,23.77,85.48,85.48,0,0,1-31.87,11.32,72,72,0,0,1-31.85-2.3A65.58,65.58,0,0,1,110.39,230.38Z"/></clipPath><clipPath id="clip-path-5" transform="translate(-7.89 -9.97)"><path class="cls-1" d="M180.15,53l18.9,10.28A70.84,70.84,0,0,1,213.69,74a74.14,74.14,0,0,1,18.14,26.93,91,91,0,0,1,6.28,34.29,104.09,104.09,0,0,1-6.33,35.62l-18.9-10.28a103.85,103.85,0,0,0,6.33-35.62,91,91,0,0,0-6.28-34.29A74.24,74.24,0,0,0,194.8,63.67,71.17,71.17,0,0,0,180.15,53Z"/></clipPath><clipPath id="clip-path-6" transform="translate(-7.89 -9.97)"><path class="cls-1" d="M95.1,252.2,76.2,241.92a90.8,90.8,0,0,1-17.89-12.78,93.07,93.07,0,0,1-23.7-33.94A112.08,112.08,0,0,1,26.54,152a131.1,131.1,0,0,1,8.24-45.72A136.38,136.38,0,0,1,58.62,65.52,132.33,132.33,0,0,1,94.07,35.74a115.51,115.51,0,0,1,41.7-14.58A98.47,98.47,0,0,1,177.64,24a90.71,90.71,0,0,1,18,7.39l9.45,5.14,9.45,5.14a90.36,90.36,0,0,0-18-7.39,98.36,98.36,0,0,0-41.88-2.83A115.37,115.37,0,0,0,113,46,132.64,132.64,0,0,0,77.51,75.8a136.56,136.56,0,0,0-23.83,40.73,131.14,131.14,0,0,0-8.24,45.72,111.93,111.93,0,0,0,8.07,43.23,93,93,0,0,0,23.7,33.94A90.51,90.51,0,0,0,95.1,252.2Z"/></clipPath><clipPath id="clip-path-7" transform="translate(-7.89 -9.97)"><path class="cls-1" d="M129,240.83l-18.9-10.28a66.37,66.37,0,0,0,12,5.09,72,72,0,0,0,31.84,2.3,85.33,85.33,0,0,0,31.87-11.33,103.72,103.72,0,0,0,27.31-23.76A108.52,108.52,0,0,0,231.53,171l18.9,10.28a108.33,108.33,0,0,1-18.33,31.9,103.68,103.68,0,0,1-27.3,23.76,85.33,85.33,0,0,1-31.87,11.33,72,72,0,0,1-31.84-2.3A67.08,67.08,0,0,1,129,240.83Z"/></clipPath><clipPath id="clip-path-8" transform="translate(-7.89 -9.97)"><path class="cls-1" d="M198.8,63.47l18.9,10.27A71.26,71.26,0,0,1,232.34,84.4a74.05,74.05,0,0,1,18.14,26.93,91,91,0,0,1,6.28,34.29,103.52,103.52,0,0,1-6.33,35.61L231.53,171a103.52,103.52,0,0,0,6.33-35.61,91,91,0,0,0-6.28-34.29,74.15,74.15,0,0,0-18.13-26.93A70.8,70.8,0,0,0,198.8,63.47Z"/></clipPath><clipPath id="clip-path-9" transform="translate(-7.89 -9.97)"><path class="cls-1" d="M113.75,262.65l-18.9-10.28A91.22,91.22,0,0,1,77,239.59a93.12,93.12,0,0,1-23.69-34,111.88,111.88,0,0,1-8.08-43.22,131.06,131.06,0,0,1,8.24-45.72A136.46,136.46,0,0,1,77.27,76a132.49,132.49,0,0,1,35.45-29.78,115.14,115.14,0,0,1,41.7-14.58,98.37,98.37,0,0,1,41.88,2.83,91.23,91.23,0,0,1,18,7.4L223.75,47l9.45,5.14a90.74,90.74,0,0,0-18-7.4,98.31,98.31,0,0,0-41.87-2.83,115.26,115.26,0,0,0-41.7,14.58A132.15,132.15,0,0,0,96.17,86.25,136.45,136.45,0,0,0,72.33,127a131.16,131.16,0,0,0-8.24,45.73,112.15,112.15,0,0,0,8.07,43.23,93.19,93.19,0,0,0,23.7,33.94A90.8,90.8,0,0,0,113.75,262.65Z"/></clipPath></defs><g class="cls-2"><g id="Layer_1" data-name="Layer 1"><g class="cls-3"><g class="cls-2"><g class="cls-2"><g class="cls-4"><g class="cls-2"><path class="cls-5" d="M91.73,220.24,72.84,210c.8.44,1.61.87,2.44,1.27L94.17,221.5c-.82-.41-1.63-.83-2.44-1.26" transform="translate(-7.89 -9.97)"/><path class="cls-6" d="M94.17,221.5,75.28,211.22a66.18,66.18,0,0,0,9.6,3.82c1.05.33,2.1.63,3.16.91l18.9,10.28c-1.06-.28-2.11-.58-3.16-.9a67.51,67.51,0,0,1-9.61-3.83" transform="translate(-7.89 -9.97)"/><path class="cls-7" d="M106.94,226.23,88,216a72.77,72.77,0,0,0,28.69,1.39A83.63,83.63,0,0,0,141,210.06l18.9,10.28a83.6,83.6,0,0,1-24.26,7.28,72.73,72.73,0,0,1-28.68-1.39" transform="translate(-7.89 -9.97)"/><path class="cls-6" d="M159.88,220.34,141,210.06q3.86-1.81,7.62-4c1.93-1.15,3.84-2.37,5.7-3.66l18.9,10.28q-2.8,1.94-5.7,3.66-3.76,2.22-7.62,4" transform="translate(-7.89 -9.97)"/><path class="cls-5" d="M173.2,212.64l-18.9-10.28a99.23,99.23,0,0,0,10-7.92l18.9,10.28a99.23,99.23,0,0,1-10,7.92" transform="translate(-7.89 -9.97)"/><path class="cls-8" d="M183.2,204.72l-18.9-10.28a111.49,111.49,0,0,0,8.84-8.94L192,195.77a110,110,0,0,1-8.84,8.95" transform="translate(-7.89 -9.97)"/><path class="cls-9" d="M192,195.77l-18.9-10.27q1.4-1.59,2.76-3.25,2.81-3.41,5.29-6.95l18.9,10.27q-2.49,3.56-5.29,7c-.91,1.1-1.83,2.18-2.76,3.23" transform="translate(-7.89 -9.97)"/><path class="cls-10" d="M200.09,185.57l-18.9-10.27a108,108,0,0,0,6.75-10.94l18.9,10.27a107.62,107.62,0,0,1-6.75,10.94" transform="translate(-7.89 -9.97)"/><path class="cls-11" d="M206.84,174.63l-18.9-10.27a106.64,106.64,0,0,0,6.21-13.79l18.9,10.28a107.88,107.88,0,0,1-6.21,13.78" transform="translate(-7.89 -9.97)"/><path class="cls-12" d="M213.05,160.85l-18.9-10.28c0-.07,0-.14.07-.21l18.9,10.28c0,.07-.05.14-.07.21" transform="translate(-7.89 -9.97)"/></g></g></g><g class="cls-2"><g class="cls-13"><g class="cls-2"><path class="cls-12" d="M213.12,160.64l-18.9-10.28a103.85,103.85,0,0,0,6.34-35.61,91.17,91.17,0,0,0-6.28-34.3,74.14,74.14,0,0,0-18.14-26.92A70.53,70.53,0,0,0,161.5,42.87l18.89,10.28A70.59,70.59,0,0,1,195,63.81a74.2,74.2,0,0,1,18.13,26.92A91,91,0,0,1,219.45,125a103.61,103.61,0,0,1-6.33,35.62" transform="translate(-7.89 -9.97)"/></g></g></g><g class="cls-2"><g class="cls-14"><g class="cls-2"><path class="cls-12" d="M76.44,242.06,57.55,231.77A90.87,90.87,0,0,1,39.65,219,93.08,93.08,0,0,1,16,185.05a111.88,111.88,0,0,1-8.07-43.22A131.34,131.34,0,0,1,16,96.35l18.9,10.28a131.35,131.35,0,0,0-8.15,45.48,111.88,111.88,0,0,0,8.08,43.22,93,93,0,0,0,23.69,33.94,91.57,91.57,0,0,0,17.89,12.79" transform="translate(-7.89 -9.97)"/><path class="cls-11" d="M34.93,106.63,16,96.35l.1-.25a133.09,133.09,0,0,1,7.67-17L42.69,89.38a135.13,135.13,0,0,0-7.67,17l-.09.25" transform="translate(-7.89 -9.97)"/><path class="cls-10" d="M42.69,89.38,23.8,79.1a137.93,137.93,0,0,1,8.47-13.74l18.9,10.29a138.6,138.6,0,0,0-8.48,13.73" transform="translate(-7.89 -9.97)"/><path class="cls-9" d="M51.17,75.65,32.27,65.36q3.6-5.11,7.69-10c.7-.83,1.4-1.65,2.11-2.45L61,63.21c-.71.8-1.41,1.62-2.11,2.45q-4.09,4.86-7.69,10" transform="translate(-7.89 -9.97)"/><path class="cls-8" d="M61,63.21,42.07,52.93a136.66,136.66,0,0,1,11-11.15L72,52.06A136.66,136.66,0,0,0,61,63.21" transform="translate(-7.89 -9.97)"/><path class="cls-5" d="M72,52.06,53.1,41.78A133.63,133.63,0,0,1,66.18,31.42L85.08,41.7A129.85,129.85,0,0,0,72,52.06" transform="translate(-7.89 -9.97)"/><path class="cls-6" d="M85.08,41.7,66.18,31.42c3-2.06,6.07-4,9.23-5.82s6-3.32,9.09-4.76l18.9,10.28q-4.59,2.16-9.09,4.76c-3.16,1.81-6.24,3.76-9.23,5.82" transform="translate(-7.89 -9.97)"/><path class="cls-7" d="M103.4,31.12,84.5,20.84A113.08,113.08,0,0,1,117.11,11a98.81,98.81,0,0,1,39,2L175,23.32a98.82,98.82,0,0,0-39-2,113.08,113.08,0,0,0-32.61,9.82" transform="translate(-7.89 -9.97)"/><path class="cls-6" d="M175,23.32,156.06,13c1,.25,2,.52,2.93.81a91.38,91.38,0,0,1,14.79,5.73l18.9,10.28a91.74,91.74,0,0,0-14.79-5.73c-1-.29-1.95-.56-2.93-.81" transform="translate(-7.89 -9.97)"/><path class="cls-5" d="M192.68,29.86l-18.9-10.28c1.09.53,2.16,1.09,3.22,1.66l18.9,10.28c-1.06-.57-2.13-1.13-3.22-1.66" transform="translate(-7.89 -9.97)"/></g></g></g><path class="cls-15" d="M236.81,77.86a114.85,114.85,0,0,1,8,43.6,132.29,132.29,0,0,1-8.16,45.65A135.08,135.08,0,0,1,213,207.56a133.86,133.86,0,0,1-35.68,30.06,115.06,115.06,0,0,1-41.76,14.67,96.4,96.4,0,0,1-41.59-3,90.24,90.24,0,0,1-35.44-20.06,93,93,0,0,1-23.69-33.94,111.88,111.88,0,0,1-8.08-43.22A131.16,131.16,0,0,1,35,106.38,136.42,136.42,0,0,1,58.86,65.66,132.3,132.3,0,0,1,94.31,35.88,115.14,115.14,0,0,1,136,21.3a98.37,98.37,0,0,1,41.88,2.83,89.35,89.35,0,0,1,35.44,19.81A92.21,92.21,0,0,1,236.81,77.86Zm-23.69,82.78A103.61,103.61,0,0,0,219.45,125a91,91,0,0,0-6.28-34.29A74.2,74.2,0,0,0,195,63.81,68.56,68.56,0,0,0,168,47.93a72.83,72.83,0,0,0-32-2.28A87.21,87.21,0,0,0,103.74,57,98.33,98.33,0,0,0,76.79,80.43a110,110,0,0,0-18.31,32.2,105.14,105.14,0,0,0-6.34,35.91,89.22,89.22,0,0,0,6.13,33.73,76,76,0,0,0,18.28,26.89,69.75,69.75,0,0,0,27.23,16.17,72,72,0,0,0,31.84,2.29A85.42,85.42,0,0,0,167.5,216.3a103.86,103.86,0,0,0,27.3-23.76,108.65,108.65,0,0,0,18.32-31.9" transform="translate(-7.89 -9.97)"/></g></g><g class="cls-16"><g class="cls-2"><g class="cls-2"><g class="cls-17"><g class="cls-2"><path class="cls-18" d="M110.39,230.38,91.49,220.1c.81.44,1.62.86,2.44,1.26l18.9,10.28c-.82-.4-1.64-.82-2.44-1.26" transform="translate(-7.89 -9.97)"/><path class="cls-19" d="M112.83,231.64l-18.9-10.28a64.79,64.79,0,0,0,9.61,3.83c1,.33,2.09.63,3.16.91l18.89,10.27c-1.06-.27-2.11-.57-3.16-.9a65.11,65.11,0,0,1-9.6-3.83" transform="translate(-7.89 -9.97)"/><path class="cls-20" d="M125.59,236.37,106.7,226.1a72.92,72.92,0,0,0,28.68,1.39,84.1,84.1,0,0,0,24.26-7.28l18.9,10.28a84.1,84.1,0,0,1-24.26,7.28,72.78,72.78,0,0,1-28.69-1.4" transform="translate(-7.89 -9.97)"/><path class="cls-19" d="M178.54,230.49l-18.9-10.28q3.86-1.82,7.61-4,2.91-1.72,5.7-3.66l18.9,10.28q-2.79,1.94-5.7,3.66-3.77,2.22-7.61,4" transform="translate(-7.89 -9.97)"/><path class="cls-18" d="M191.85,222.79,173,212.51a100.78,100.78,0,0,0,10-7.92l18.9,10.27a100.59,100.59,0,0,1-10,7.93" transform="translate(-7.89 -9.97)"/><path class="cls-18" d="M201.86,214.86,183,204.59a109.9,109.9,0,0,0,8.83-9l18.9,10.28a109.78,109.78,0,0,1-8.83,8.94" transform="translate(-7.89 -9.97)"/><path class="cls-21" d="M210.69,205.92l-18.9-10.28q1.4-1.57,2.76-3.24,2.8-3.41,5.3-7l18.9,10.28q-2.49,3.56-5.3,7-1.37,1.66-2.76,3.24" transform="translate(-7.89 -9.97)"/><path class="cls-22" d="M218.75,195.72l-18.9-10.28a108.6,108.6,0,0,0,6.75-10.93l18.9,10.27a108.74,108.74,0,0,1-6.75,10.94" transform="translate(-7.89 -9.97)"/><path class="cls-23" d="M225.5,184.78l-18.9-10.27a107.19,107.19,0,0,0,6.2-13.79L231.7,171a106,106,0,0,1-6.2,13.79" transform="translate(-7.89 -9.97)"/><path class="cls-24" d="M231.7,171l-18.9-10.27.08-.21,18.9,10.28-.08.2" transform="translate(-7.89 -9.97)"/></g></g></g><g class="cls-2"><g class="cls-25"><g class="cls-2"><path class="cls-24" d="M231.78,170.79l-18.9-10.28a103.85,103.85,0,0,0,6.33-35.62,91,91,0,0,0-6.28-34.29A74.24,74.24,0,0,0,194.8,63.67,71.17,71.17,0,0,0,180.15,53l18.9,10.28A70.84,70.84,0,0,1,213.69,74a74.14,74.14,0,0,1,18.14,26.93,91,91,0,0,1,6.28,34.29,104.09,104.09,0,0,1-6.33,35.62" transform="translate(-7.89 -9.97)"/></g></g></g><g class="cls-2"><g class="cls-26"><g class="cls-2"><path class="cls-24" d="M95.1,252.2,76.2,241.92a90.8,90.8,0,0,1-17.89-12.78,93.07,93.07,0,0,1-23.7-33.94A112.08,112.08,0,0,1,26.54,152a131.06,131.06,0,0,1,8.15-45.47l18.89,10.28a131.32,131.32,0,0,0-8.14,45.47,111.93,111.93,0,0,0,8.07,43.23,93,93,0,0,0,23.7,33.94A90.51,90.51,0,0,0,95.1,252.2" transform="translate(-7.89 -9.97)"/><path class="cls-23" d="M53.58,116.78,34.69,106.5l.09-.25a133.09,133.09,0,0,1,7.67-17l18.9,10.28a133.09,133.09,0,0,0-7.67,17,2.6,2.6,0,0,1-.1.25" transform="translate(-7.89 -9.97)"/><path class="cls-22" d="M61.35,99.53,42.45,89.25a135.77,135.77,0,0,1,8.48-13.74l18.9,10.28a134,134,0,0,0-8.48,13.74" transform="translate(-7.89 -9.97)"/><path class="cls-21" d="M69.83,85.79,50.93,75.51q3.59-5.12,7.69-10c.69-.82,1.4-1.64,2.11-2.45L79.62,73.36c-.71.8-1.41,1.62-2.11,2.44q-4.1,4.88-7.68,10" transform="translate(-7.89 -9.97)"/><path class="cls-18" d="M79.62,73.36,60.73,63.07a138,138,0,0,1,11-11.14l18.9,10.28a138.3,138.3,0,0,0-11,11.15" transform="translate(-7.89 -9.97)"/><path class="cls-18" d="M90.65,62.21,71.75,51.93A129.68,129.68,0,0,1,84.84,41.57l18.89,10.28A132.14,132.14,0,0,0,90.65,62.21" transform="translate(-7.89 -9.97)"/><path class="cls-19" d="M103.73,51.85,84.84,41.57q4.47-3.1,9.23-5.83,4.5-2.6,9.09-4.75l18.89,10.28Q117.48,43.43,113,46q-4.74,2.73-9.23,5.83" transform="translate(-7.89 -9.97)"/><path class="cls-20" d="M122.05,41.27,103.16,31a112.7,112.7,0,0,1,32.61-9.83,98.77,98.77,0,0,1,38.94,2l18.9,10.28a98.81,98.81,0,0,0-39-2,113.08,113.08,0,0,0-32.61,9.82" transform="translate(-7.89 -9.97)"/><path class="cls-19" d="M193.61,33.47l-18.9-10.28c1,.25,2,.52,2.93.81a91.85,91.85,0,0,1,14.8,5.73L211.33,40a91.38,91.38,0,0,0-14.79-5.73c-1-.29-1.95-.56-2.93-.81" transform="translate(-7.89 -9.97)"/><path class="cls-18" d="M211.33,40,192.44,29.73c1.08.53,2.15,1.09,3.21,1.66l18.9,10.28c-1.06-.57-2.13-1.13-3.22-1.66" transform="translate(-7.89 -9.97)"/></g></g></g></g></g><g class="cls-27"><g class="cls-2"><g class="cls-2"><g class="cls-28"><g class="cls-2"><path class="cls-29" d="M129,240.83l-18.9-10.28c.81.44,1.62.86,2.44,1.26l18.9,10.28c-.82-.4-1.63-.82-2.44-1.26" transform="translate(-7.89 -9.97)"/><path class="cls-30" d="M131.48,242.09l-18.9-10.28a65.89,65.89,0,0,0,9.61,3.83c1,.32,2.1.62,3.16.9l18.9,10.28c-1.06-.27-2.12-.58-3.16-.9a65.89,65.89,0,0,1-9.61-3.83" transform="translate(-7.89 -9.97)"/><path class="cls-31" d="M144.25,246.82l-18.9-10.28a72.91,72.91,0,0,0,28.68,1.4,84,84,0,0,0,24.26-7.28l18.9,10.28a84.1,84.1,0,0,1-24.26,7.28,72.91,72.91,0,0,1-28.68-1.4" transform="translate(-7.89 -9.97)"/><path class="cls-30" d="M197.19,240.94l-18.9-10.28c2.57-1.22,5.11-2.56,7.61-4q2.91-1.71,5.71-3.65l18.89,10.27c-1.86,1.3-3.76,2.51-5.7,3.66-2.51,1.49-5,2.83-7.61,4.05" transform="translate(-7.89 -9.97)"/><path class="cls-29" d="M210.5,233.23,191.61,223a100.78,100.78,0,0,0,10-7.93l18.9,10.28a98.23,98.23,0,0,1-10,7.92" transform="translate(-7.89 -9.97)"/><path class="cls-32" d="M220.51,225.31,201.61,215a109.88,109.88,0,0,0,8.84-8.94l18.89,10.28a109.76,109.76,0,0,1-8.83,8.94" transform="translate(-7.89 -9.97)"/><path class="cls-33" d="M229.34,216.37l-18.89-10.28q1.4-1.59,2.76-3.24,2.79-3.4,5.29-7l18.9,10.28c-1.66,2.37-3.43,4.68-5.3,7q-1.35,1.65-2.76,3.24" transform="translate(-7.89 -9.97)"/><path class="cls-34" d="M237.4,206.17l-18.9-10.28A108.74,108.74,0,0,0,225.25,185l18.9,10.28a109.87,109.87,0,0,1-6.75,10.94" transform="translate(-7.89 -9.97)"/><path class="cls-7" d="M244.15,195.23,225.25,185a106.58,106.58,0,0,0,6.2-13.79l18.9,10.28a106,106,0,0,1-6.2,13.79" transform="translate(-7.89 -9.97)"/><path class="cls-35" d="M250.35,181.44l-18.9-10.28a1.8,1.8,0,0,0,.08-.21l18.9,10.28-.08.21" transform="translate(-7.89 -9.97)"/></g></g></g><g class="cls-2"><g class="cls-36"><g class="cls-2"><path class="cls-35" d="M250.43,181.23,231.53,171a103.52,103.52,0,0,0,6.33-35.61,91,91,0,0,0-6.28-34.29,74.15,74.15,0,0,0-18.13-26.93A70.8,70.8,0,0,0,198.8,63.47l18.9,10.27A71.26,71.26,0,0,1,232.34,84.4a74.05,74.05,0,0,1,18.14,26.93,91,91,0,0,1,6.28,34.29,103.52,103.52,0,0,1-6.33,35.61" transform="translate(-7.89 -9.97)"/></g></g></g><g class="cls-2"><g class="cls-37"><g class="cls-2"><path class="cls-35" d="M113.75,262.65l-18.9-10.28A91.22,91.22,0,0,1,77,239.59a93.12,93.12,0,0,1-23.69-34,111.88,111.88,0,0,1-8.08-43.22,131.11,131.11,0,0,1,8.15-45.48l18.9,10.29a131,131,0,0,0-8.15,45.47,112.15,112.15,0,0,0,8.07,43.23,93.19,93.19,0,0,0,23.7,33.94,90.8,90.8,0,0,0,17.89,12.78" transform="translate(-7.89 -9.97)"/><path class="cls-7" d="M72.24,127.23l-18.9-10.29.09-.24a133.85,133.85,0,0,1,7.67-17L80,110a134.35,134.35,0,0,0-7.67,17l-.09.26" transform="translate(-7.89 -9.97)"/><path class="cls-34" d="M80,110,61.1,99.7A137.59,137.59,0,0,1,69.58,86l18.9,10.28A136.75,136.75,0,0,0,80,110" transform="translate(-7.89 -9.97)"/><path class="cls-33" d="M88.48,96.24,69.58,86q3.58-5.11,7.69-10c.69-.83,1.4-1.64,2.11-2.45L98.28,83.8c-.71.81-1.42,1.62-2.11,2.45q-4.11,4.88-7.69,10" transform="translate(-7.89 -9.97)"/><path class="cls-32" d="M98.28,83.8,79.38,73.52a138.17,138.17,0,0,1,11-11.15l18.9,10.28a138.17,138.17,0,0,0-11,11.15" transform="translate(-7.89 -9.97)"/><path class="cls-29" d="M109.3,72.65,90.4,62.37A131,131,0,0,1,103.49,52l18.9,10.28A131,131,0,0,0,109.3,72.65" transform="translate(-7.89 -9.97)"/><path class="cls-30" d="M122.39,62.3,103.49,52q4.49-3.1,9.23-5.83,4.5-2.59,9.09-4.75l18.9,10.28q-4.59,2.16-9.09,4.75-4.76,2.73-9.23,5.83" transform="translate(-7.89 -9.97)"/><path class="cls-31" d="M140.71,51.72l-18.9-10.28a112.7,112.7,0,0,1,32.61-9.83,99,99,0,0,1,39,2l18.9,10.28a98.82,98.82,0,0,0-39-2,112.61,112.61,0,0,0-32.61,9.83" transform="translate(-7.89 -9.97)"/><path class="cls-30" d="M212.27,43.91l-18.9-10.28c1,.26,1.95.53,2.93.81a91.74,91.74,0,0,1,14.79,5.73L230,50.45a91.85,91.85,0,0,0-14.8-5.73c-1-.28-1.95-.55-2.92-.81" transform="translate(-7.89 -9.97)"/><path class="cls-29" d="M230,50.45l-18.9-10.28c1.08.54,2.15,1.09,3.22,1.67L233.2,52.12c-1.06-.58-2.13-1.13-3.21-1.67" transform="translate(-7.89 -9.97)"/></g></g></g><path class="cls-38" d="M274.12,98.46a114.62,114.62,0,0,1,8,43.6A132,132,0,0,1,274,187.7a135,135,0,0,1-23.62,40.45,133.67,133.67,0,0,1-35.68,30.06,114.94,114.94,0,0,1-41.76,14.67,96.24,96.24,0,0,1-41.59-3,90.35,90.35,0,0,1-35.44-20.05,93.19,93.19,0,0,1-23.7-33.94,112.15,112.15,0,0,1-8.07-43.23A131.16,131.16,0,0,1,72.33,127,136.45,136.45,0,0,1,96.17,86.25a132.15,132.15,0,0,1,35.45-29.78,115.26,115.26,0,0,1,41.7-14.58,98.31,98.31,0,0,1,41.87,2.83,89.25,89.25,0,0,1,35.44,19.82A92.15,92.15,0,0,1,274.12,98.46Zm-23.69,82.77a103.52,103.52,0,0,0,6.33-35.61,91,91,0,0,0-6.28-34.29A74.05,74.05,0,0,0,232.34,84.4a68.53,68.53,0,0,0-27.08-15.88,72.89,72.89,0,0,0-32-2.28,87.24,87.24,0,0,0-32.22,11.31,98.12,98.12,0,0,0-27,23.47,109.84,109.84,0,0,0-18.31,32.21,105.31,105.31,0,0,0-6.35,35.91,89.4,89.4,0,0,0,6.14,33.72,75.82,75.82,0,0,0,18.28,26.89,69.63,69.63,0,0,0,27.23,16.17,72,72,0,0,0,31.84,2.3,85.33,85.33,0,0,0,31.87-11.33,103.68,103.68,0,0,0,27.3-23.76,108.33,108.33,0,0,0,18.33-31.9" transform="translate(-7.89 -9.97)"/></g></g><g class="cls-39"><g class="cls-2"><g class="cls-2"><g class="cls-17"><g class="cls-2"><path class="cls-40" d="M110.39,230.38,91.49,220.1c.81.44,1.62.86,2.44,1.26l18.9,10.28c-.82-.4-1.64-.82-2.44-1.26" transform="translate(-7.89 -9.97)"/><path class="cls-41" d="M112.83,231.64l-18.9-10.28a64.79,64.79,0,0,0,9.61,3.83c1,.33,2.09.63,3.16.91l18.89,10.27c-1.06-.27-2.11-.57-3.16-.9a65.11,65.11,0,0,1-9.6-3.83" transform="translate(-7.89 -9.97)"/><path class="cls-42" d="M125.59,236.37,106.7,226.1a72.92,72.92,0,0,0,28.68,1.39,84.1,84.1,0,0,0,24.26-7.28l18.9,10.28a84.1,84.1,0,0,1-24.26,7.28,72.78,72.78,0,0,1-28.69-1.4" transform="translate(-7.89 -9.97)"/><path class="cls-41" d="M178.54,230.49l-18.9-10.28q3.86-1.82,7.61-4,2.91-1.72,5.7-3.66l18.9,10.28q-2.79,1.94-5.7,3.66-3.77,2.22-7.61,4" transform="translate(-7.89 -9.97)"/><path class="cls-40" d="M191.85,222.79,173,212.51a100.78,100.78,0,0,0,10-7.92l18.9,10.27a100.59,100.59,0,0,1-10,7.93" transform="translate(-7.89 -9.97)"/><path class="cls-43" d="M201.86,214.86,183,204.59a109.9,109.9,0,0,0,8.83-9l18.9,10.28a109.78,109.78,0,0,1-8.83,8.94" transform="translate(-7.89 -9.97)"/><path class="cls-44" d="M210.69,205.92l-18.9-10.28q1.4-1.57,2.76-3.24,2.8-3.41,5.3-7l18.9,10.28q-2.49,3.56-5.3,7-1.37,1.66-2.76,3.24" transform="translate(-7.89 -9.97)"/><path class="cls-45" d="M218.75,195.72l-18.9-10.28a108.6,108.6,0,0,0,6.75-10.93l18.9,10.27a108.74,108.74,0,0,1-6.75,10.94" transform="translate(-7.89 -9.97)"/><path class="cls-46" d="M225.5,184.78l-18.9-10.27a107.19,107.19,0,0,0,6.2-13.79L231.7,171a106,106,0,0,1-6.2,13.79" transform="translate(-7.89 -9.97)"/><path class="cls-47" d="M231.7,171l-18.9-10.27.08-.21,18.9,10.28-.08.2" transform="translate(-7.89 -9.97)"/></g></g></g><g class="cls-2"><g class="cls-25"><g class="cls-2"><path class="cls-47" d="M231.78,170.79l-18.9-10.28a103.85,103.85,0,0,0,6.33-35.62,91,91,0,0,0-6.28-34.29A74.24,74.24,0,0,0,194.8,63.67,71.17,71.17,0,0,0,180.15,53l18.9,10.28A70.84,70.84,0,0,1,213.69,74a74.14,74.14,0,0,1,18.14,26.93,91,91,0,0,1,6.28,34.29,104.09,104.09,0,0,1-6.33,35.62" transform="translate(-7.89 -9.97)"/></g></g></g><g class="cls-2"><g class="cls-26"><g class="cls-2"><path class="cls-47" d="M95.1,252.2,76.2,241.92a90.8,90.8,0,0,1-17.89-12.78,93.07,93.07,0,0,1-23.7-33.94A112.08,112.08,0,0,1,26.54,152a131.06,131.06,0,0,1,8.15-45.47l18.89,10.28a131.32,131.32,0,0,0-8.14,45.47,111.93,111.93,0,0,0,8.07,43.23,93,93,0,0,0,23.7,33.94A90.51,90.51,0,0,0,95.1,252.2" transform="translate(-7.89 -9.97)"/><path class="cls-46" d="M53.58,116.78,34.69,106.5l.09-.25a133.09,133.09,0,0,1,7.67-17l18.9,10.28a133.09,133.09,0,0,0-7.67,17,2.6,2.6,0,0,1-.1.25" transform="translate(-7.89 -9.97)"/><path class="cls-45" d="M61.35,99.53,42.45,89.25a135.77,135.77,0,0,1,8.48-13.74l18.9,10.28a134,134,0,0,0-8.48,13.74" transform="translate(-7.89 -9.97)"/><path class="cls-44" d="M69.83,85.79,50.93,75.51q3.59-5.12,7.69-10c.69-.82,1.4-1.64,2.11-2.45L79.62,73.36c-.71.8-1.41,1.62-2.11,2.44q-4.1,4.88-7.68,10" transform="translate(-7.89 -9.97)"/><path class="cls-43" d="M79.62,73.36,60.73,63.07a138,138,0,0,1,11-11.14l18.9,10.28a138.3,138.3,0,0,0-11,11.15" transform="translate(-7.89 -9.97)"/><path class="cls-40" d="M90.65,62.21,71.75,51.93A129.68,129.68,0,0,1,84.84,41.57l18.89,10.28A132.14,132.14,0,0,0,90.65,62.21" transform="translate(-7.89 -9.97)"/><path class="cls-41" d="M103.73,51.85,84.84,41.57q4.47-3.1,9.23-5.83,4.5-2.6,9.09-4.75l18.89,10.28Q117.48,43.43,113,46q-4.74,2.73-9.23,5.83" transform="translate(-7.89 -9.97)"/><path class="cls-42" d="M122.05,41.27,103.16,31a112.7,112.7,0,0,1,32.61-9.83,98.77,98.77,0,0,1,38.94,2l18.9,10.28a98.81,98.81,0,0,0-39-2,113.08,113.08,0,0,0-32.61,9.82" transform="translate(-7.89 -9.97)"/><path class="cls-41" d="M193.61,33.47l-18.9-10.28c1,.25,2,.52,2.93.81a91.85,91.85,0,0,1,14.8,5.73L211.33,40a91.38,91.38,0,0,0-14.79-5.73c-1-.29-1.95-.56-2.93-.81" transform="translate(-7.89 -9.97)"/><path class="cls-40" d="M211.33,40,192.44,29.73c1.08.53,2.15,1.09,3.21,1.66l18.9,10.28c-1.06-.57-2.13-1.13-3.22-1.66" transform="translate(-7.89 -9.97)"/></g></g></g><path class="cls-48" d="M255.47,88a114.66,114.66,0,0,1,8,43.6,132,132,0,0,1-8.16,45.64,134.92,134.92,0,0,1-23.63,40.46,133.44,133.44,0,0,1-35.67,30,115,115,0,0,1-41.77,14.67,96.2,96.2,0,0,1-41.58-2.95,90.11,90.11,0,0,1-35.44-20.06,93,93,0,0,1-23.7-33.94,111.93,111.93,0,0,1-8.07-43.23,131.14,131.14,0,0,1,8.24-45.72A136.56,136.56,0,0,1,77.51,75.8,132.64,132.64,0,0,1,113,46a115.37,115.37,0,0,1,41.7-14.57,98.36,98.36,0,0,1,41.88,2.83A89.35,89.35,0,0,1,232,54.09,92.15,92.15,0,0,1,255.47,88Zm-23.69,82.78a104.09,104.09,0,0,0,6.33-35.62,91,91,0,0,0-6.28-34.29A74.14,74.14,0,0,0,213.69,74a68.57,68.57,0,0,0-27.08-15.87,72.89,72.89,0,0,0-32-2.28A87.16,87.16,0,0,0,122.4,67.1,98,98,0,0,0,95.45,90.57a109.87,109.87,0,0,0-18.32,32.21,105.1,105.1,0,0,0-6.34,35.91,89.56,89.56,0,0,0,6.13,33.72A75.8,75.8,0,0,0,95.21,219.3a69.66,69.66,0,0,0,27.22,16.17,72,72,0,0,0,31.85,2.3,85.48,85.48,0,0,0,31.87-11.32,103.9,103.9,0,0,0,27.3-23.77,108.63,108.63,0,0,0,18.33-31.89" transform="translate(-7.89 -9.97)"/></g></g><g class="cls-49"><g class="cls-2"><g class="cls-2"><g class="cls-28"><g class="cls-2"><path class="cls-29" d="M129,240.83l-18.9-10.28c.81.44,1.62.86,2.44,1.26l18.9,10.28c-.82-.4-1.63-.82-2.44-1.26" transform="translate(-7.89 -9.97)"/><path class="cls-30" d="M131.48,242.09l-18.9-10.28a65.89,65.89,0,0,0,9.61,3.83c1,.32,2.1.62,3.16.9l18.9,10.28c-1.06-.27-2.12-.58-3.16-.9a65.89,65.89,0,0,1-9.61-3.83" transform="translate(-7.89 -9.97)"/><path class="cls-31" d="M144.25,246.82l-18.9-10.28a72.91,72.91,0,0,0,28.68,1.4,84,84,0,0,0,24.26-7.28l18.9,10.28a84.1,84.1,0,0,1-24.26,7.28,72.91,72.91,0,0,1-28.68-1.4" transform="translate(-7.89 -9.97)"/><path class="cls-30" d="M197.19,240.94l-18.9-10.28c2.57-1.22,5.11-2.56,7.61-4q2.91-1.71,5.71-3.65l18.89,10.27c-1.86,1.3-3.76,2.51-5.7,3.66-2.51,1.49-5,2.83-7.61,4.05" transform="translate(-7.89 -9.97)"/><path class="cls-29" d="M210.5,233.23,191.61,223a100.78,100.78,0,0,0,10-7.93l18.9,10.28a98.23,98.23,0,0,1-10,7.92" transform="translate(-7.89 -9.97)"/><path class="cls-32" d="M220.51,225.31,201.61,215a109.88,109.88,0,0,0,8.84-8.94l18.89,10.28a109.76,109.76,0,0,1-8.83,8.94" transform="translate(-7.89 -9.97)"/><path class="cls-33" d="M229.34,216.37l-18.89-10.28q1.4-1.59,2.76-3.24,2.79-3.4,5.29-7l18.9,10.28c-1.66,2.37-3.43,4.68-5.3,7q-1.35,1.65-2.76,3.24" transform="translate(-7.89 -9.97)"/><path class="cls-34" d="M237.4,206.17l-18.9-10.28A108.74,108.74,0,0,0,225.25,185l18.9,10.28a109.87,109.87,0,0,1-6.75,10.94" transform="translate(-7.89 -9.97)"/><path class="cls-7" d="M244.15,195.23,225.25,185a106.58,106.58,0,0,0,6.2-13.79l18.9,10.28a106,106,0,0,1-6.2,13.79" transform="translate(-7.89 -9.97)"/><path class="cls-35" d="M250.35,181.44l-18.9-10.28a1.8,1.8,0,0,0,.08-.21l18.9,10.28-.08.21" transform="translate(-7.89 -9.97)"/></g></g></g><g class="cls-2"><g class="cls-36"><g class="cls-2"><path class="cls-35" d="M250.43,181.23,231.53,171a103.52,103.52,0,0,0,6.33-35.61,91,91,0,0,0-6.28-34.29,74.15,74.15,0,0,0-18.13-26.93A70.8,70.8,0,0,0,198.8,63.47l18.9,10.27A71.26,71.26,0,0,1,232.34,84.4a74.05,74.05,0,0,1,18.14,26.93,91,91,0,0,1,6.28,34.29,103.52,103.52,0,0,1-6.33,35.61" transform="translate(-7.89 -9.97)"/></g></g></g><g class="cls-2"><g class="cls-37"><g class="cls-2"><path class="cls-35" d="M113.75,262.65l-18.9-10.28A91.22,91.22,0,0,1,77,239.59a93.12,93.12,0,0,1-23.69-34,111.88,111.88,0,0,1-8.08-43.22,131.11,131.11,0,0,1,8.15-45.48l18.9,10.29a131,131,0,0,0-8.15,45.47,112.15,112.15,0,0,0,8.07,43.23,93.19,93.19,0,0,0,23.7,33.94,90.8,90.8,0,0,0,17.89,12.78" transform="translate(-7.89 -9.97)"/><path class="cls-7" d="M72.24,127.23l-18.9-10.29.09-.24a133.85,133.85,0,0,1,7.67-17L80,110a134.35,134.35,0,0,0-7.67,17l-.09.26" transform="translate(-7.89 -9.97)"/><path class="cls-34" d="M80,110,61.1,99.7A137.59,137.59,0,0,1,69.58,86l18.9,10.28A136.75,136.75,0,0,0,80,110" transform="translate(-7.89 -9.97)"/><path class="cls-33" d="M88.48,96.24,69.58,86q3.58-5.11,7.69-10c.69-.83,1.4-1.64,2.11-2.45L98.28,83.8c-.71.81-1.42,1.62-2.11,2.45q-4.11,4.88-7.69,10" transform="translate(-7.89 -9.97)"/><path class="cls-32" d="M98.28,83.8,79.38,73.52a138.17,138.17,0,0,1,11-11.15l18.9,10.28a138.17,138.17,0,0,0-11,11.15" transform="translate(-7.89 -9.97)"/><path class="cls-29" d="M109.3,72.65,90.4,62.37A131,131,0,0,1,103.49,52l18.9,10.28A131,131,0,0,0,109.3,72.65" transform="translate(-7.89 -9.97)"/><path class="cls-30" d="M122.39,62.3,103.49,52q4.49-3.1,9.23-5.83,4.5-2.59,9.09-4.75l18.9,10.28q-4.59,2.16-9.09,4.75-4.76,2.73-9.23,5.83" transform="translate(-7.89 -9.97)"/><path class="cls-31" d="M140.71,51.72l-18.9-10.28a112.7,112.7,0,0,1,32.61-9.83,99,99,0,0,1,39,2l18.9,10.28a98.82,98.82,0,0,0-39-2,112.61,112.61,0,0,0-32.61,9.83" transform="translate(-7.89 -9.97)"/><path class="cls-30" d="M212.27,43.91l-18.9-10.28c1,.26,1.95.53,2.93.81a91.74,91.74,0,0,1,14.79,5.73L230,50.45a91.85,91.85,0,0,0-14.8-5.73c-1-.28-1.95-.55-2.92-.81" transform="translate(-7.89 -9.97)"/><path class="cls-29" d="M230,50.45l-18.9-10.28c1.08.54,2.15,1.09,3.22,1.67L233.2,52.12c-1.06-.58-2.13-1.13-3.21-1.67" transform="translate(-7.89 -9.97)"/></g></g></g><path class="cls-38" d="M274.12,98.46a114.62,114.62,0,0,1,8,43.6A132,132,0,0,1,274,187.7a135,135,0,0,1-23.62,40.45,133.67,133.67,0,0,1-35.68,30.06,114.94,114.94,0,0,1-41.76,14.67,96.24,96.24,0,0,1-41.59-3,90.35,90.35,0,0,1-35.44-20.05,93.19,93.19,0,0,1-23.7-33.94,112.15,112.15,0,0,1-8.07-43.23A131.16,131.16,0,0,1,72.33,127,136.45,136.45,0,0,1,96.17,86.25a132.15,132.15,0,0,1,35.45-29.78,115.26,115.26,0,0,1,41.7-14.58,98.31,98.31,0,0,1,41.87,2.83,89.25,89.25,0,0,1,35.44,19.82A92.15,92.15,0,0,1,274.12,98.46Zm-23.69,82.77a103.52,103.52,0,0,0,6.33-35.61,91,91,0,0,0-6.28-34.29A74.05,74.05,0,0,0,232.34,84.4a68.53,68.53,0,0,0-27.08-15.88,72.89,72.89,0,0,0-32-2.28,87.24,87.24,0,0,0-32.22,11.31,98.12,98.12,0,0,0-27,23.47,109.84,109.84,0,0,0-18.31,32.21,105.31,105.31,0,0,0-6.35,35.91,89.4,89.4,0,0,0,6.14,33.72,75.82,75.82,0,0,0,18.28,26.89,69.63,69.63,0,0,0,27.23,16.17,72,72,0,0,0,31.84,2.3,85.33,85.33,0,0,0,31.87-11.33,103.68,103.68,0,0,0,27.3-23.76,108.33,108.33,0,0,0,18.33-31.9" transform="translate(-7.89 -9.97)"/></g></g></g></g></svg>